<?xml version="1.0" standalone="no"?>
<!DOCTYPE svg PUBLIC "-//W3C//DTD SVG 20010904//EN"
 "http://www.w3.org/TR/2001/REC-SVG-20010904/DTD/svg10.dtd">
<svg version="1.0" xmlns="http://www.w3.org/2000/svg"
 width="1093.000000pt" height="1090.000000pt" viewBox="0 0 1093.000000 1090.000000"
 preserveAspectRatio="xMidYMid meet">

<g transform="translate(0.000000,1090.000000) scale(0.100000,-0.100000)"
fill="#000000" stroke="none">
<path d="M4965 10019 c-37 -7 -190 -17 -619 -39 -93 -4 -197 -13 -230 -19 -34
-5 -108 -15 -166 -21 -58 -6 -132 -16 -165 -21 -33 -6 -92 -15 -132 -19 -72
-8 -154 -23 -228 -40 -22 -5 -53 -11 -70 -14 -16 -2 -50 -9 -75 -15 -25 -6
-83 -20 -130 -32 -47 -11 -103 -25 -125 -30 -22 -5 -76 -21 -120 -34 -44 -13
-127 -39 -185 -56 -58 -18 -112 -35 -120 -40 -8 -4 -35 -13 -60 -20 -78 -22
-257 -90 -485 -184 -301 -124 -550 -245 -569 -277 -7 -11 -7 -24 1 -40 6 -13
23 -63 38 -113 15 -49 36 -117 46 -149 11 -33 19 -70 19 -82 0 -12 6 -37 14
-55 7 -19 28 -92 45 -164 17 -71 38 -157 46 -190 8 -33 19 -88 25 -122 6 -34
17 -84 26 -110 8 -26 19 -77 24 -113 5 -36 17 -101 26 -145 9 -44 19 -114 23
-155 3 -41 10 -81 15 -89 5 -8 13 -59 17 -115 5 -56 16 -171 24 -256 24 -245
37 -675 31 -1050 -5 -289 -3 -353 9 -394 8 -27 15 -72 15 -100 0 -69 26 -201
72 -361 11 -38 24 -88 30 -110 5 -22 13 -44 19 -50 5 -5 9 -15 9 -23 0 -8 12
-42 27 -76 14 -33 42 -97 61 -141 80 -183 250 -452 417 -656 33 -41 106 -127
162 -191 57 -65 103 -121 103 -126 0 -12 -80 -86 -130 -119 -84 -56 -234 -126
-370 -170 -130 -43 -163 -52 -280 -73 -142 -26 -183 -35 -290 -62 -269 -68
-420 -151 -420 -229 0 -52 25 -63 161 -67 82 -3 159 2 260 17 79 11 171 23
204 26 33 3 88 11 123 17 47 8 66 8 75 -1 6 -6 26 -11 45 -11 26 0 33 -4 30
-17 -2 -12 -14 -19 -36 -21 -17 -2 -32 -7 -32 -11 0 -8 -36 -16 -123 -27 -16
-2 -43 -8 -60 -13 -102 -32 -394 -72 -508 -70 -78 2 -119 -11 -119 -36 0 -8
-6 -15 -12 -15 -7 -1 -96 -7 -198 -15 -341 -27 -478 -46 -596 -82 -162 -49
-183 -86 -80 -138 l59 -29 243 -4 c313 -6 568 15 1054 84 224 32 380 43 438
31 l43 -9 -25 -19 c-13 -10 -38 -19 -54 -19 -17 0 -34 -5 -37 -10 -3 -5 -15
-10 -26 -10 -10 0 -19 -5 -19 -11 0 -5 -5 -7 -10 -4 -6 4 -16 2 -23 -3 -16
-13 -232 -57 -437 -88 -267 -40 -501 -64 -716 -70 -245 -8 -357 3 -518 53 -21
7 -23 24 24 -197 45 -212 56 -258 165 -704 37 -148 70 -277 75 -286 5 -8 28
-25 52 -37 147 -74 640 -81 1243 -17 193 20 404 31 418 22 18 -11 -3 -26 -42
-30 l-35 -3 28 -15 c25 -13 31 -13 57 2 28 17 29 17 19 -2 -8 -16 -8 -20 4
-20 8 0 17 -6 19 -12 4 -9 8 -9 14 -3 4 6 22 11 38 12 28 3 58 6 255 32 41 5
113 17 160 26 47 8 123 22 170 30 94 16 144 25 305 55 61 11 134 25 163 30 63
12 133 25 227 44 39 7 122 24 185 36 63 12 124 26 135 30 11 5 52 13 90 19 39
6 88 15 110 20 54 12 268 58 384 82 52 11 142 31 200 44 58 14 147 34 196 46
50 11 126 29 170 41 44 11 101 24 128 28 58 11 279 64 402 97 50 13 104 26
120 28 17 2 57 9 90 16 51 11 56 14 35 20 -15 4 -18 7 -8 8 9 1 23 9 30 19 7
10 21 21 31 25 24 9 21 22 -9 36 -21 9 -24 14 -14 26 7 8 23 15 35 15 12 0 43
9 69 21 50 22 151 49 371 99 77 17 168 38 201 46 62 14 338 66 689 129 329 59
675 110 1030 150 105 12 504 18 517 8 7 -6 44 -14 82 -18 63 -6 122 -21 104
-26 -5 -1 -12 -3 -18 -4 -5 -1 -20 -3 -32 -4 l-23 -2 23 -19 c13 -11 18 -21
12 -25 -14 -9 -138 -22 -370 -39 -245 -19 -545 -50 -720 -76 -276 -40 -568
-88 -755 -125 -238 -46 -281 -55 -365 -74 -47 -11 -120 -25 -163 -32 -77 -12
-79 -13 -74 -38 39 -204 39 -205 53 -179 7 14 27 31 45 38 27 12 41 11 98 -5
85 -24 382 -32 579 -15 417 35 544 47 677 64 66 8 161 20 210 26 50 6 119 15
155 20 36 5 125 14 199 20 74 6 137 13 141 15 16 10 258 9 271 0 23 -18 125
-56 140 -53 8 2 13 -3 11 -9 -1 -10 22 -13 93 -13 52 0 96 -3 96 -7 1 -5 3
-19 4 -33 4 -40 34 -279 44 -350 8 -58 35 -136 52 -150 4 -3 19 -23 33 -45 46
-68 97 -127 176 -203 l75 -73 3 252 c1 145 6 257 12 263 5 5 92 13 192 16 193
8 258 20 351 67 26 13 51 31 54 39 3 8 0 113 -7 232 -6 119 -15 282 -20 362
-13 257 -31 464 -40 488 -6 13 -10 42 -10 65 0 23 -7 51 -15 61 -8 11 -15 31
-15 46 0 81 -85 111 -430 150 -91 10 -195 19 -232 19 -62 1 -68 3 -73 23 -6
26 -20 164 -35 336 -15 181 -33 223 -131 319 -58 56 -230 148 -261 139 -10 -2
-18 0 -18 5 0 9 -79 35 -138 44 -28 5 -33 4 -22 -4 12 -9 11 -11 -7 -11 -12 0
-29 -3 -39 -7 -16 -6 -16 -7 2 -15 15 -7 13 -7 -9 -5 -22 4 -25 2 -16 -9 6 -8
18 -14 25 -14 8 0 14 -4 14 -10 0 -5 -5 -10 -11 -10 -5 0 -7 -4 -4 -10 8 -13
2 -13 -140 5 -384 46 -799 46 -1210 0 -71 -8 -197 -21 -280 -30 -82 -9 -199
-25 -260 -35 -60 -11 -166 -29 -235 -40 -69 -12 -271 -51 -450 -88 -219 -44
-349 -66 -397 -67 -40 0 -73 -3 -73 -7 0 -5 -24 -7 -52 -6 -45 1 -47 2 -15 5
32 4 36 7 26 19 -9 11 -9 14 1 14 10 0 10 3 0 15 -16 19 -17 19 55 40 33 10
64 25 68 32 4 7 15 13 25 13 9 0 34 6 57 14 103 37 618 143 902 187 71 10 75
13 135 73 223 221 420 496 549 766 22 47 45 94 51 105 12 21 52 129 92 250 33
98 66 245 77 345 5 47 14 110 18 140 5 30 10 118 10 196 1 111 -1 143 -12 153
-11 9 -267 11 -1063 9 -999 -3 -1052 -4 -1109 -22 -127 -41 -223 -127 -291
-263 l-39 -78 -3 -1007 -2 -1006 -73 -22 c-77 -23 -121 -35 -262 -74 -49 -13
-137 -38 -194 -55 -57 -17 -112 -31 -122 -31 -18 0 -19 39 -21 1113 l-3 1112
-35 70 c-62 124 -162 208 -290 244 -79 22 -2101 34 -2139 12 l-24 -13 6 -182
c6 -184 27 -379 46 -430 6 -15 11 -39 11 -53 0 -14 7 -46 15 -72 8 -25 28 -90
45 -144 34 -111 54 -161 116 -296 24 -51 44 -96 44 -99 0 -3 6 -13 14 -21 7
-9 26 -41 42 -71 134 -253 470 -630 829 -929 55 -46 111 -90 125 -99 14 -9 43
-30 65 -48 51 -40 153 -110 285 -197 58 -38 117 -78 132 -88 15 -10 32 -19 38
-19 5 0 10 -4 10 -8 0 -5 -47 -23 -103 -41 -109 -33 -123 -32 -167 7 -8 7 -38
27 -65 45 -28 18 -75 50 -105 72 -31 22 -63 45 -72 50 -29 18 -242 183 -280
217 -20 18 -47 42 -61 53 -14 11 -71 63 -128 115 -277 258 -482 498 -619 730
-65 109 -113 201 -153 290 -37 82 -77 183 -77 192 0 6 -6 24 -14 41 -18 42
-67 209 -77 267 -4 25 -12 63 -17 85 -34 132 -53 430 -53 820 0 386 -11 722
-28 860 -7 50 -16 128 -22 175 -5 47 -14 112 -19 145 -6 33 -17 103 -26 155
-8 52 -19 118 -23 145 -5 28 -14 66 -20 85 -6 19 -11 50 -11 68 0 18 -6 54
-14 80 -8 26 -20 81 -26 122 -7 41 -18 95 -25 120 -15 50 -52 210 -66 280 -5
25 -13 54 -18 65 -5 11 -17 54 -26 95 -9 41 -21 84 -27 96 -5 11 -10 36 -11
55 -2 33 0 35 89 79 51 25 112 54 135 64 24 11 67 29 94 42 28 12 79 34 115
49 116 47 154 63 216 89 34 14 68 26 76 26 8 0 18 4 24 9 5 4 36 18 69 29 296
101 421 142 505 165 30 8 80 22 110 30 30 9 80 21 110 27 30 6 69 16 85 22 17
6 53 14 80 18 28 4 97 17 155 28 157 30 280 47 550 76 80 9 168 20 195 25 217
40 1259 32 1585 -12 58 -8 166 -20 240 -27 74 -6 162 -18 196 -26 33 -8 80
-14 103 -14 24 0 66 -6 94 -14 29 -8 90 -19 137 -26 47 -6 99 -16 115 -21 28
-10 152 -41 285 -73 30 -7 64 -17 75 -23 11 -6 45 -16 75 -23 30 -7 65 -18 77
-26 12 -8 30 -14 40 -14 18 0 207 -62 241 -79 9 -4 33 -14 52 -21 121 -42 148
-52 172 -65 14 -8 31 -15 38 -15 6 0 36 -11 66 -25 30 -14 58 -25 61 -25 7 0
65 -25 149 -66 28 -13 54 -24 58 -24 7 0 277 -129 285 -136 2 -2 0 -14 -6 -27
-6 -12 -23 -67 -38 -122 -14 -55 -35 -129 -45 -165 -10 -36 -30 -114 -44 -175
-15 -60 -31 -130 -37 -155 -20 -81 -45 -199 -75 -355 -24 -125 -31 -164 -44
-255 -6 -47 -18 -111 -26 -142 -8 -32 -14 -79 -14 -105 0 -26 -4 -72 -10 -102
-31 -183 -40 -396 -40 -971 l-1 -585 -30 -165 c-17 -91 -35 -174 -40 -185 -5
-11 -13 -40 -19 -65 -12 -53 -33 -117 -43 -126 -4 -4 -7 -16 -7 -26 0 -20 -44
-131 -100 -253 -21 -44 -40 -87 -44 -95 -8 -18 -31 -58 -99 -168 -50 -80 -59
-94 -102 -158 -32 -48 -95 -128 -166 -213 -95 -112 -94 -105 -8 -96 41 4 94 9
118 11 24 2 50 5 56 8 13 5 142 193 228 331 115 187 261 509 308 680 12 44 25
89 29 100 15 37 40 154 40 185 0 17 5 40 10 50 19 36 35 301 30 500 -15 626 3
1133 50 1450 6 36 17 115 26 175 40 277 72 435 155 770 32 126 140 484 165
543 24 59 31 52 -111 126 -279 145 -761 332 -1165 452 -259 76 -390 111 -545
144 -33 7 -87 18 -120 25 -33 8 -103 21 -155 30 -52 9 -120 21 -150 26 -30 6
-95 15 -145 20 -133 13 -251 27 -335 38 -41 6 -119 10 -172 11 -54 0 -141 4
-195 9 -54 6 -179 15 -278 21 -99 6 -198 12 -220 14 -22 1 -58 -1 -80 -5z
m1578 -4065 c34 -20 82 -48 107 -62 25 -13 50 -28 55 -32 11 -9 310 -185 380
-224 146 -83 185 -110 173 -121 -7 -7 -94 -59 -193 -116 -99 -56 -200 -116
-224 -131 -25 -15 -51 -28 -57 -28 -7 0 -32 13 -56 29 -150 100 -368 100 -515
0 -23 -16 -46 -29 -52 -29 -8 0 -124 65 -272 154 -19 11 -75 44 -122 71 -48
28 -87 55 -87 60 0 6 42 34 93 63 50 29 225 131 387 226 162 96 301 175 308
175 8 1 41 -15 75 -35z m-2613 -138 c59 -117 59 -252 1 -371 -37 -75 -60 -97
-207 -199 -101 -69 -164 -129 -164 -156 0 -4 21 -6 48 -4 167 13 666 24 675
15 6 -6 -8 -18 -39 -33 -40 -18 -55 -34 -79 -78 -88 -161 -156 -227 -280 -271
-50 -17 -91 -22 -245 -26 -219 -6 -366 6 -438 37 -85 37 -162 132 -193 240
-16 59 -25 69 -76 91 -43 18 -54 35 -30 45 8 3 107 -2 220 -11 229 -17 377
-19 377 -7 0 5 -8 24 -17 43 -10 19 -19 65 -21 107 -7 120 30 176 195 296 68
49 117 106 131 155 15 48 15 183 1 234 -5 20 -7 42 -3 48 11 18 110 -89 144
-155z m2616 -515 c49 -22 88 -70 103 -127 35 -132 -84 -259 -224 -238 -53 7
-119 60 -140 111 -70 167 96 329 261 254z m568 -55 c18 -8 41 -24 50 -37 19
-28 21 -109 4 -130 -7 -9 -67 -53 -133 -99 -66 -46 -186 -133 -266 -192 -81
-59 -154 -108 -164 -108 -14 0 -15 6 -9 33 12 51 6 118 -12 139 -16 17 -18 17
-36 2 -10 -10 -18 -28 -18 -41 0 -13 -6 -23 -15 -23 -17 0 -39 36 -32 53 3 7
42 38 88 70 142 97 209 145 327 234 108 81 157 113 175 113 4 0 23 -6 41 -14z
m-534 -469 c0 -41 -15 -66 -30 -51 -9 9 -8 22 1 52 14 47 29 46 29 -1z m-144
-65 c-4 -36 -13 -77 -21 -91 -8 -17 -10 -33 -5 -41 7 -11 17 -5 48 28 21 23
42 42 45 42 4 0 7 -13 7 -29 0 -26 -20 -47 -155 -161 -212 -179 -272 -236
-310 -296 -61 -95 -144 -108 -209 -32 -41 47 -51 87 -43 165 4 41 14 65 35 92
41 51 68 63 106 47 101 -41 118 -224 25 -272 -61 -31 -119 22 -119 109 0 77
62 125 103 79 32 -35 37 -67 16 -101 -10 -17 -22 -31 -26 -31 -14 0 -43 34
-43 52 0 22 16 24 28 2 13 -23 26 0 18 30 -9 34 -37 42 -58 16 -26 -33 -23
-77 8 -105 40 -37 64 -33 97 15 33 48 11 128 -48 166 -24 16 -28 16 -60 -2
-77 -41 -90 -164 -25 -234 53 -57 120 -48 171 23 25 34 29 50 29 102 0 75 -17
112 -73 161 -23 20 -37 38 -31 41 6 2 114 73 240 158 260 175 261 176 250 67z
m54 -11 c0 -23 -16 -36 -25 -21 -9 14 1 40 15 40 5 0 10 -9 10 -19z m-2716
-37 c9 -3 16 -12 16 -20 0 -12 -39 -14 -223 -14 -123 0 -226 3 -230 6 -3 3 -3
12 0 20 4 11 44 14 213 14 115 0 215 -3 224 -6z m2806 -9 c0 -8 -4 -15 -10
-15 -5 0 -10 7 -10 15 0 8 5 15 10 15 6 0 10 -7 10 -15z m2440 -419 c0 -3 -4
-8 -10 -11 -5 -3 -10 -1 -10 4 0 6 5 11 10 11 6 0 10 -2 10 -4z m-5850 -562
c36 -31 97 -80 135 -109 39 -30 93 -71 120 -92 28 -21 76 -55 108 -77 61 -41
68 -51 40 -60 -10 -3 -72 -21 -138 -40 -66 -19 -158 -46 -205 -60 -47 -14 -92
-26 -102 -26 -14 0 -17 25 -20 243 -2 133 -8 250 -12 260 -14 29 7 19 74 -39z
m5509 -30 c41 -29 51 -72 51 -216 0 -160 -10 -202 -53 -229 -49 -31 -148 -23
-185 14 -27 27 -27 28 -30 188 -4 174 2 205 46 239 32 26 136 28 171 4z m-321
-21 c35 -26 41 -55 49 -213 9 -199 -10 -225 -174 -231 -45 -2 -84 -1 -86 1 -3
3 -8 107 -12 232 l-7 227 39 4 c76 9 164 0 191 -20z m601 11 c2 -2 8 -69 14
-149 6 -80 13 -145 17 -145 3 0 14 46 24 103 33 192 35 197 59 193 12 -3 46
-5 76 -5 l54 -1 -7 -137 c-3 -76 -9 -182 -12 -235 l-7 -98 -49 0 -49 0 5 68
c10 126 18 297 13 292 -2 -3 -19 -75 -36 -160 -43 -208 -35 -190 -86 -190 -33
0 -45 4 -49 18 -2 9 -10 82 -17 162 -7 80 -15 154 -19 165 -4 10 -10 -59 -14
-155 -4 -96 -9 -177 -11 -180 -2 -3 -22 -4 -45 -2 l-42 4 6 62 c3 33 8 129 11
211 9 214 1 199 88 190 40 -4 74 -8 76 -11z m-939 -9 c37 -19 47 -38 51 -100
l4 -49 -45 -8 c-24 -4 -48 -4 -51 0 -4 4 -9 25 -11 47 -3 35 -6 40 -30 43 -24
3 -28 0 -28 -23 0 -27 10 -38 103 -117 35 -31 60 -61 67 -84 17 -50 7 -112
-23 -142 -50 -49 -171 -48 -214 3 -18 21 -23 38 -23 86 l0 59 50 0 50 0 0 -38
c0 -51 22 -81 47 -66 27 18 19 64 -16 94 -16 14 -47 40 -70 58 -58 46 -72 72
-73 131 -2 57 16 84 67 107 40 18 110 17 145 -1z m-276 -27 c4 -22 19 -184 32
-359 l7 -87 -44 -4 c-24 -3 -47 -2 -51 1 -5 4 -48 413 -48 456 0 2 17 6 38 8
20 2 43 4 49 5 7 1 15 -8 17 -20z m-154 -229 c0 -128 -2 -234 -3 -235 -1 -1
-29 -4 -62 -6 l-59 -3 -41 165 -40 165 -3 -171 -2 -172 -31 -6 c-72 -14 -87
-9 -98 32 -79 304 -103 403 -97 409 3 4 28 7 53 7 l47 1 26 -135 c15 -74 29
-142 32 -150 4 -8 7 56 7 142 1 174 -4 164 76 170 l40 3 28 -135 c16 -74 32
-144 37 -155 4 -11 7 52 6 140 l-1 160 40 5 c22 3 41 5 43 4 2 -1 3 -107 2
-235z m-988 51 c5 -37 6 -36 -54 -45 -53 -8 -53 -8 -37 -69 l11 -43 49 10 c27
5 52 7 55 5 3 -3 6 -18 7 -34 2 -26 -1 -29 -45 -37 -54 -10 -54 -11 -36 -100
l12 -58 57 6 c55 7 57 6 63 -20 4 -15 5 -29 2 -32 -6 -6 -166 -42 -188 -43
-12 0 -20 12 -27 38 -23 89 -82 393 -79 404 2 6 40 19 84 29 116 25 121 24
126 -11z m-273 -67 c6 -21 22 -85 36 -143 14 -58 35 -140 46 -184 11 -43 18
-80 16 -82 -1 -2 -31 -10 -66 -18 l-63 -15 -23 52 c-73 163 -135 290 -135 279
0 -6 18 -87 40 -179 22 -91 38 -168 36 -170 -2 -2 -19 -6 -39 -10 l-35 -5 -51
211 c-28 116 -51 217 -51 225 0 10 19 19 58 26 31 7 61 14 65 17 4 2 41 -64
82 -149 42 -84 73 -144 71 -133 -11 44 -67 271 -72 287 -3 11 2 18 18 21 52
10 57 8 67 -30z m-289 -269 c43 -157 56 -220 48 -225 -16 -10 -79 -21 -85 -15
-5 5 -108 383 -115 420 -2 16 6 22 42 31 25 7 46 11 48 10 1 -2 30 -101 62
-221z m-266 -11 c67 -235 55 -214 116 -196 28 8 53 13 56 11 2 -3 6 -18 10
-34 l5 -29 -100 -29 c-56 -16 -103 -27 -105 -25 -5 6 -126 425 -126 436 0 8
53 28 86 32 5 0 32 -74 58 -166z m-206 64 c12 -12 31 -54 43 -92 19 -64 20
-71 5 -101 -10 -23 -30 -39 -65 -56 -28 -12 -51 -28 -51 -34 0 -6 11 -43 25
-83 l24 -72 -34 -15 c-50 -21 -62 -18 -75 19 -23 64 -129 401 -127 403 1 1 38
13 82 27 102 33 145 34 173 4z m1421 11 c0 -7 -6 -51 -12 -98 l-12 -85 -33 -3
-32 -3 0 64 c0 36 -3 78 -6 95 -5 26 -3 31 17 35 49 9 79 7 78 -5z m-1698 -88
c4 -14 34 -110 67 -215 l60 -190 -45 -14 c-26 -8 -47 -11 -53 -5 -7 7 -129
388 -134 418 -1 10 63 36 83 33 8 -1 18 -13 22 -27z m-161 -50 c20 -20 29 -37
44 -87 8 -24 -3 -31 -65 -46 -23 -6 -27 -3 -38 34 -14 45 -35 59 -58 36 -14
-13 -11 -28 22 -143 53 -181 57 -188 95 -164 12 7 13 16 2 55 -16 61 -16 62
16 69 15 3 36 8 48 12 18 5 23 0 33 -40 18 -71 14 -93 -23 -133 -31 -34 -39
-37 -97 -41 -90 -6 -110 12 -148 132 -17 52 -38 123 -47 159 -15 63 -15 68 2
104 24 48 72 73 142 73 39 0 57 -5 72 -20z m-295 -84 c11 -7 28 -37 37 -65 15
-49 15 -52 -2 -61 -10 -5 -33 -11 -51 -12 -29 -3 -33 0 -41 28 -10 38 -30 57
-52 48 -21 -8 -21 -47 2 -67 9 -8 46 -29 82 -45 96 -44 130 -89 130 -174 0
-32 -6 -46 -30 -68 -52 -49 -174 -59 -208 -17 -7 9 -42 110 -42 123 0 2 86 24
94 24 3 0 12 -21 19 -47 12 -40 18 -48 38 -48 17 0 25 6 27 22 6 39 -18 64
-91 98 -101 46 -137 89 -137 165 0 50 31 83 99 105 50 16 93 13 126 -9z m-276
-83 c78 -291 101 -381 101 -394 0 -20 -89 -43 -95 -25 -2 6 -27 99 -55 206
-28 107 -53 202 -56 212 -3 11 4 19 23 26 55 20 71 15 82 -25z m-185 -33 c34
-12 51 -50 86 -183 44 -166 39 -212 -27 -245 -35 -18 -173 -57 -177 -50 -10
17 -108 439 -103 444 9 9 138 42 169 43 15 1 38 -3 52 -9z m-730 -167 c8 -27
86 -406 86 -420 0 -12 -99 -38 -119 -32 -7 3 -44 80 -83 172 -39 92 -73 166
-75 164 -1 -2 13 -81 33 -176 22 -102 33 -176 28 -181 -5 -5 -22 -10 -39 -12
l-30 -3 -42 205 c-23 113 -43 214 -45 225 -2 16 6 22 47 31 93 22 85 29 150
-127 33 -77 62 -142 65 -144 3 -2 -8 64 -24 146 -27 131 -29 151 -16 159 24
16 58 11 64 -7z m-357 -85 c11 -13 25 -32 31 -44 17 -33 61 -286 55 -316 -13
-69 -122 -116 -196 -84 -46 19 -60 49 -87 185 -22 115 -26 192 -9 222 31 59
164 82 206 37z m-273 -35 c16 -54 75 -427 69 -433 -4 -4 -27 -10 -50 -14 -39
-6 -42 -5 -47 22 -3 15 -19 108 -36 207 -17 99 -33 190 -35 202 -4 16 0 23 17
26 52 10 77 7 82 -10z m-136 -40 c3 -29 0 -32 -32 -39 -30 -5 -35 -10 -31 -28
8 -34 55 -333 55 -350 0 -15 -78 -38 -92 -27 -4 4 -19 78 -33 166 -38 238 -31
218 -70 211 -25 -5 -34 -3 -39 10 -14 36 -6 53 27 59 223 41 211 41 215 -2z
m-277 -77 c45 -151 102 -377 96 -382 -3 -4 -26 -9 -50 -11 l-44 -5 -13 51
c-11 47 -14 51 -41 51 -29 0 -29 -1 -29 -59 0 -58 -1 -59 -31 -65 -62 -12 -58
-26 -52 227 3 127 8 234 10 237 5 6 93 18 117 16 15 -1 24 -15 37 -60z m-308
5 c24 -9 44 -47 48 -86 4 -47 -3 -67 -27 -90 -25 -23 -25 -25 -7 -25 34 0 54
-34 64 -112 5 -40 14 -85 18 -99 9 -26 7 -27 -37 -33 -55 -7 -67 3 -76 65 -3
21 -9 57 -12 79 -4 26 -13 44 -26 51 -34 18 -39 -1 -27 -105 6 -53 9 -99 7
-101 -3 -3 -25 -8 -50 -11 -54 -8 -47 -28 -78 236 -11 96 -22 185 -25 197 -4
17 0 24 17 28 66 14 180 18 211 6z m-234 -240 c26 -248 27 -241 -41 -241 -43
0 -38 -18 -63 235 -24 236 -25 219 10 226 72 16 68 27 94 -220z m-192 174 c25
-28 42 -142 27 -183 -13 -35 -56 -65 -106 -71 l-43 -6 4 -60 c10 -128 13 -120
-45 -123 l-50 -3 -18 226 c-10 128 -15 230 -10 235 11 11 113 18 174 13 32 -3
51 -11 67 -28z m2158 -57 c-4 -51 -9 -96 -12 -100 -7 -13 -53 -9 -58 5 -2 6
-6 49 -10 94 -7 90 -8 88 64 92 l24 1 -8 -92z m-2485 57 c39 -20 50 -43 50
-104 l0 -51 -50 0 c-49 0 -50 1 -50 29 0 44 -10 61 -35 61 -54 0 -35 -55 38
-109 109 -80 137 -152 94 -239 -17 -35 -59 -52 -127 -52 -81 0 -113 29 -123
110 -4 30 -3 58 1 61 4 4 27 9 52 11 l45 3 3 -47 c2 -25 9 -52 17 -58 23 -19
45 -4 45 30 0 35 -26 65 -101 116 -81 55 -102 164 -43 219 39 36 133 46 184
20z m-250 -225 c3 -124 3 -228 0 -231 -8 -10 -105 -18 -118 -10 -11 7 -44 131
-74 281 -6 30 -14 58 -17 63 -4 4 -5 -74 -3 -173 l4 -180 -39 0 -40 0 -7 225
c-4 124 -4 230 -1 235 3 6 37 10 74 10 l67 0 34 -155 c18 -85 35 -155 38 -155
3 0 2 69 -1 154 -3 85 -3 157 1 161 3 3 22 5 42 3 l35 -3 5 -225z m-322 65 c2
-82 0 -187 -3 -232 l-7 -83 -49 0 -49 0 0 236 0 235 53 -3 52 -3 3 -150z
m5067 25 c-16 -4 -39 -8 -50 -8 -16 0 -15 2 5 8 14 4 36 8 50 8 22 0 22 -1 -5
-8z m-28 -26 c-3 -3 -12 -4 -19 -1 -8 3 -5 6 6 6 11 1 17 -2 13 -5z"/>
<path d="M8570 3570 c-6 -12 -9 -75 -8 -162 l3 -143 28 -3 27 -3 0 159 c0 137
-2 161 -16 166 -22 8 -22 8 -34 -14z"/>
<path d="M8246 3572 c-3 -3 -6 -77 -6 -164 l0 -158 24 0 c14 0 28 5 32 12 8
13 6 262 -2 289 -5 17 -38 31 -48 21z"/>
<path d="M5430 3073 c0 -25 46 -143 56 -143 28 0 43 29 33 63 -21 73 -30 87
-60 87 -16 0 -29 -3 -29 -7z"/>
<path d="M4273 2742 c-9 -6 -2 -46 28 -162 21 -84 42 -156 45 -159 9 -10 39
16 42 36 4 25 -56 263 -70 280 -12 15 -27 16 -45 5z"/>
<path d="M3171 2497 c-8 -10 -4 -48 15 -148 31 -168 32 -169 53 -169 39 0 40
20 14 165 -14 77 -30 146 -36 153 -12 16 -32 15 -46 -1z"/>
<path d="M2515 2280 c4 -52 9 -97 11 -99 2 -2 10 -1 18 2 12 5 11 18 -5 94
-11 48 -23 90 -26 93 -3 3 -2 -38 2 -90z"/>
<path d="M2183 2294 c3 -31 8 -58 11 -61 2 -2 14 0 25 7 16 8 21 20 21 48 0
42 -14 62 -43 62 -18 0 -19 -5 -14 -56z"/>
<path d="M1730 2262 c0 -27 3 -64 6 -81 6 -26 10 -30 28 -25 31 9 31 11 29 72
-3 60 -6 66 -40 77 -22 6 -23 4 -23 -43z"/>
<path d="M4409 9576 c-3 -3 -57 -10 -120 -16 -248 -23 -547 -64 -699 -96 -121
-25 -282 -64 -330 -79 -25 -7 -63 -16 -85 -20 -22 -4 -44 -10 -50 -15 -5 -4
-37 -15 -70 -23 -33 -9 -114 -34 -180 -56 -124 -42 -135 -46 -245 -88 -36 -13
-83 -31 -105 -39 -22 -8 -54 -21 -72 -29 -17 -8 -34 -15 -38 -15 -3 0 -31 -11
-61 -25 -30 -14 -57 -25 -60 -25 -3 0 -29 -11 -57 -24 -29 -13 -72 -32 -96
-42 -24 -11 -89 -41 -145 -69 -119 -59 -115 -46 -67 -225 37 -135 78 -300 96
-385 7 -33 22 -105 34 -160 39 -177 49 -228 66 -325 9 -52 20 -117 25 -145 5
-27 12 -77 15 -110 3 -33 10 -76 15 -95 10 -42 35 -293 44 -443 2 -44 9 -74
19 -84 14 -14 130 -16 1034 -14 560 1 1041 4 1068 7 92 10 192 58 252 121 66
69 118 164 127 233 10 75 15 1971 5 2025 -19 106 -82 184 -187 231 -54 25
-123 40 -133 30z m-994 -737 c-18 -17 -58 -61 -87 -100 l-53 -69 -102 0 c-57
0 -103 4 -103 9 0 20 98 93 175 131 77 39 182 72 197 63 4 -2 -8 -17 -27 -34z
m179 14 c21 -42 57 -164 50 -174 -7 -11 -141 -12 -148 -1 -11 18 56 202 74
202 5 0 16 -12 24 -27z m147 -72 c49 -48 89 -93 89 -100 0 -7 -24 -11 -70 -11
-80 0 -71 -10 -112 123 -20 63 -21 77 -10 77 8 0 55 -40 103 -89z m64 69 c82
-28 174 -82 231 -134 l49 -45 -102 -1 -103 0 -30 43 c-17 23 -56 68 -87 100
-65 65 -57 71 42 37z m-295 3 c-1 -16 -46 -158 -53 -170 -9 -15 -127 -18 -127
-4 0 15 59 85 113 133 50 46 67 56 67 41z m-265 -224 c3 -4 -5 -34 -18 -66
-14 -32 -30 -75 -37 -95 l-12 -38 -139 0 c-107 0 -139 3 -139 13 0 19 87 159
112 180 18 15 38 18 125 16 57 -1 106 -5 108 -10z m192 3 c9 -6 10 -26 2 -82
-18 -133 -5 -120 -119 -120 -94 0 -100 1 -100 20 0 33 71 179 89 183 28 8 115
7 128 -1z m210 0 c12 -8 22 -52 37 -159 l6 -43 -114 0 c-63 0 -117 3 -119 8
-7 12 22 185 32 191 15 9 145 11 158 3z m200 -1 c6 0 20 -16 31 -34 20 -35 62
-141 62 -157 0 -6 -46 -10 -109 -10 l-109 0 -11 73 c-7 39 -14 84 -16 99 -2
15 0 28 5 30 9 3 119 2 147 -1z m298 -27 c36 -48 95 -147 95 -161 0 -10 -29
-13 -131 -13 -119 0 -131 2 -136 19 -2 10 -19 55 -37 99 -18 45 -29 83 -25 84
5 2 55 2 111 1 98 -2 103 -3 123 -29z m-983 -219 c3 -3 1 -29 -3 -58 -4 -28
-11 -73 -14 -99 l-6 -48 -145 0 -144 0 0 40 c0 34 14 123 25 158 3 9 41 12
143 12 76 0 141 -2 144 -5z m253 -4 c3 -6 2 -53 -1 -105 l-7 -96 -115 0 -115
0 6 83 c11 135 3 127 123 127 56 0 105 -4 109 -9z m279 -22 c3 -17 6 -65 6
-105 l0 -74 -130 0 -130 0 0 53 c0 28 3 76 6 105 l7 52 117 0 118 0 6 -31z
m273 -24 c7 -27 13 -74 13 -102 l0 -53 -124 0 -123 0 -6 98 c-2 53 -3 101 0
105 2 4 55 6 116 5 l111 -3 13 -50z m303 18 c6 -21 14 -68 17 -105 l6 -68
-142 0 -141 0 0 38 c0 20 -4 64 -10 96 -5 32 -7 63 -4 67 3 5 63 9 134 9 l129
0 11 -37z m-1144 -210 c7 -2 15 -32 19 -66 3 -34 8 -79 11 -99 l6 -38 -141 0
-140 0 -11 38 c-15 53 -24 138 -16 157 5 14 24 16 133 14 70 -1 133 -3 139 -6z
m278 -5 c2 -1 6 -47 9 -100 l5 -98 -113 0 -113 0 -6 63 c-4 34 -9 78 -12 99
-4 29 -2 37 12 40 22 4 214 1 218 -4z m296 -98 c0 -88 -2 -100 -17 -101 -62
-2 -228 3 -232 7 -3 3 -7 47 -9 99 l-4 95 131 0 131 0 0 -100z m280 37 c0 -65
-13 -126 -29 -136 -5 -3 -59 -5 -121 -3 l-112 3 6 31 c3 17 6 61 6 99 l0 69
125 0 125 0 0 -63z m310 32 c0 -16 -7 -61 -16 -100 l-16 -69 -130 0 -131 0 7
61 c3 34 6 79 6 100 l0 39 140 0 140 0 0 -31z m-1084 -309 c19 -52 34 -98 34
-102 0 -5 -48 -8 -107 -7 -123 0 -117 -4 -189 116 -56 94 -56 94 97 91 l131
-3 34 -95z m213 78 c11 -28 30 -170 24 -180 -2 -5 -38 -8 -79 -8 l-75 0 -35
75 c-19 41 -37 88 -40 105 l-6 30 101 0 c96 0 102 -1 110 -22z m263 -33 c-1
-27 -7 -74 -13 -102 l-10 -53 -90 0 c-101 0 -89 -13 -108 118 -6 40 -9 78 -5
83 3 6 53 8 117 7 l112 -3 -3 -50z m259 25 c-1 -14 -19 -60 -38 -102 l-36 -78
-89 0 c-86 0 -88 0 -84 23 3 12 10 56 17 97 6 41 13 79 16 83 3 4 53 6 111 5
l107 -3 -4 -25z m284 3 c-8 -34 -60 -123 -92 -158 -22 -24 -30 -25 -125 -25
-91 0 -100 2 -95 18 5 15 37 97 67 170 9 21 15 22 131 22 l121 0 -7 -27z
m-777 -227 c6 -3 20 -36 32 -73 11 -38 24 -74 26 -80 3 -8 -1 -13 -10 -13 -23
0 -183 159 -169 168 13 8 107 7 121 -2z m382 -5 c0 -25 -185 -190 -198 -177
-6 6 49 179 59 186 11 8 139 -1 139 -9z m-523 -33 c30 -42 88 -102 128 -134
19 -14 17 -15 -24 -9 -88 12 -221 78 -311 155 l-35 29 106 1 106 0 30 -42z
m343 34 c0 -11 -37 -118 -53 -154 -13 -31 -28 -35 -46 -14 -11 13 -61 151 -61
168 0 4 36 8 80 8 44 0 80 -4 80 -8z m410 0 c0 -16 -115 -95 -185 -127 -71
-34 -153 -60 -161 -52 -3 3 13 19 36 37 22 17 61 58 86 91 l47 59 88 0 c49 0
89 -4 89 -8z"/>
<path d="M5625 9553 c-82 -33 -142 -90 -180 -171 l-25 -53 0 -1018 c0 -1073
-1 -1042 42 -1131 23 -47 92 -129 137 -164 51 -38 108 -61 191 -77 83 -16
2098 -23 2116 -8 9 7 14 32 14 72 0 33 5 101 10 151 6 50 17 152 26 226 8 74
24 185 34 245 10 61 26 155 35 210 9 55 19 103 21 106 2 4 8 33 13 66 5 32 17
87 25 123 9 36 21 90 27 120 5 30 14 69 20 85 5 17 24 93 43 170 19 77 47 182
62 233 21 68 25 98 18 110 -9 15 -175 104 -244 131 -14 5 -77 32 -140 60 -63
28 -118 51 -123 51 -4 0 -26 9 -50 19 -61 28 -230 92 -382 144 -38 13 -86 29
-105 36 -129 45 -500 146 -595 161 -27 5 -102 17 -165 28 -184 32 -315 51
-470 66 -256 26 -311 28 -355 9z m811 -872 c36 -17 89 -55 129 -93 l68 -64 -2
-354 c-1 -194 -3 -355 -4 -356 -2 -2 -18 16 -37 39 -53 66 -138 135 -209 170
-61 30 -73 32 -166 32 -55 0 -116 -4 -135 -8 l-35 -8 5 327 5 328 35 8 c133
31 251 24 346 -21z m777 19 l37 -11 0 -325 0 -325 -37 8 c-21 4 -81 8 -133 8
-87 0 -101 -3 -165 -33 -54 -26 -90 -54 -162 -127 l-93 -94 0 357 0 358 63 60
c123 119 190 146 347 140 58 -2 122 -9 143 -16z m-1183 -469 l0 -229 58 15
c92 24 216 13 296 -26 67 -33 207 -153 193 -167 -4 -4 -17 2 -30 13 -101 93
-287 91 -496 -4 -30 -13 -59 -22 -65 -20 -6 3 -22 63 -34 133 -12 71 -34 190
-47 264 -14 74 -25 142 -25 151 0 17 114 99 138 99 9 0 12 -52 12 -229z m1327
188 c38 -25 63 -48 63 -59 0 -9 -14 -91 -30 -181 -17 -90 -38 -207 -47 -259
-9 -52 -20 -100 -25 -107 -7 -8 -29 -2 -81 22 -187 86 -349 91 -467 15 -24
-16 -47 -27 -50 -23 -11 11 135 134 197 165 55 27 80 33 152 36 57 3 105 -1
144 -11 l57 -15 0 229 c0 169 3 229 12 229 6 0 40 -19 75 -41z m-1463 -271 c3
-13 9 -50 15 -83 38 -209 53 -290 57 -296 2 -4 32 6 65 22 176 86 325 106 441
60 32 -12 60 -25 62 -29 2 -4 -33 -7 -77 -8 -71 0 -94 -5 -169 -36 -48 -20
-148 -70 -222 -111 -96 -53 -138 -72 -144 -63 -5 6 -40 110 -77 231 -37 121
-69 223 -71 226 -5 10 87 109 102 109 7 0 16 -10 18 -22z m1581 -25 c25 -27
45 -55 45 -64 0 -18 -127 -425 -142 -452 -8 -16 -16 -14 -91 28 -262 146 -382
192 -473 181 -30 -3 -54 -4 -54 -1 0 4 26 18 58 33 110 51 278 30 452 -58 32
-16 61 -26 64 -22 2 4 19 90 36 192 18 102 34 191 36 198 6 22 23 13 69 -35z"/>
<path d="M4991 6847 c-19 -6 -59 -34 -90 -63 -48 -44 -60 -63 -80 -124 -24
-71 -24 -72 -5 -132 52 -174 233 -262 379 -186 79 41 136 113 152 190 35 162
-101 330 -264 327 -32 -1 -73 -6 -92 -12z"/>
<path d="M8900 4281 c0 -4 11 -8 25 -9 14 -1 25 2 25 6 0 4 -11 8 -25 8 -14 1
-25 -1 -25 -5z"/>
<path d="M8965 4270 c3 -5 8 -10 11 -10 2 0 4 5 4 10 0 6 -5 10 -11 10 -5 0
-7 -4 -4 -10z"/>
<path d="M8920 4250 c0 -5 4 -10 9 -10 6 0 13 5 16 10 3 6 -1 10 -9 10 -9 0
-16 -4 -16 -10z"/>
<path d="M6170 2220 c-12 -8 -10 -10 8 -10 13 0 20 4 17 10 -7 12 -6 12 -25 0z"/>
</g>
</svg>
